<mxfile host="app.diagrams.net" modified="2021-08-04T02:37:41.043Z" agent="5.0 (Windows NT 10.0; Win64; x64) AppleWebKit/537.36 (KHTML, like Gecko) Chrome/92.0.4515.107 Safari/537.36 Edg/92.0.902.62" etag="6ivv2SzRLLZeQNkU4F4d" version="14.9.2" type="github">
  <diagram id="6a731a19-8d31-9384-78a2-239565b7b9f0" name="Page-1">
    <mxGraphModel dx="988" dy="579" grid="1" gridSize="10" guides="1" tooltips="1" connect="1" arrows="1" fold="1" page="1" pageScale="1" pageWidth="1169" pageHeight="827" background="none" math="0" shadow="0">
      <root>
        <mxCell id="0" />
        <mxCell id="1" parent="0" />
        <mxCell id="2" value="start" style="shape=mxgraph.flowchart.terminator;strokeWidth=2;gradientColor=none;gradientDirection=north;fontStyle=0;html=1;" parent="1" vertex="1">
          <mxGeometry x="295" y="180" width="120" height="30" as="geometry" />
        </mxCell>
        <mxCell id="7" style="fontStyle=1;strokeColor=#003366;strokeWidth=1;html=1;entryX=0.5;entryY=0;entryDx=0;entryDy=0;" parent="1" source="2" target="5QzYHKSAta37W70-3rno-55" edge="1">
          <mxGeometry relative="1" as="geometry">
            <mxPoint x="320" y="130" as="targetPoint" />
          </mxGeometry>
        </mxCell>
        <mxCell id="40" value="end" style="shape=mxgraph.flowchart.terminator;strokeWidth=2;gradientColor=none;gradientDirection=north;fontStyle=0;html=1;" parent="1" vertex="1">
          <mxGeometry x="295" y="810" width="120" height="30" as="geometry" />
        </mxCell>
        <mxCell id="45" value="" style="edgeStyle=elbowEdgeStyle;elbow=horizontal;exitX=1;exitY=0.5;exitPerimeter=0;entryX=0.905;entryY=0.5;entryPerimeter=0;fontStyle=1;strokeColor=#003366;strokeWidth=1;html=1;" parent="1" target="34" edge="1">
          <mxGeometry width="100" height="100" as="geometry">
            <mxPoint x="380.5" y="1119.25" as="sourcePoint" />
            <mxPoint x="100" as="targetPoint" />
            <Array as="points">
              <mxPoint x="950" y="1320" />
            </Array>
          </mxGeometry>
        </mxCell>
        <mxCell id="5QzYHKSAta37W70-3rno-55" value="select the current loop to test" style="rounded=0;whiteSpace=wrap;html=1;" vertex="1" parent="1">
          <mxGeometry x="280" y="280" width="150" height="60" as="geometry" />
        </mxCell>
        <mxCell id="5QzYHKSAta37W70-3rno-56" value="&lt;div style=&quot;text-align: left; font-size: 12px;&quot;&gt;&lt;span style=&quot;font-size: 12px;&quot;&gt;The verification steps are divided into three steps:&lt;/span&gt;&lt;/div&gt;&lt;ol style=&quot;font-size: 12px;&quot;&gt;&lt;li style=&quot;text-align: left; font-size: 12px;&quot;&gt;&amp;nbsp;Check the first loop&lt;/li&gt;&lt;li style=&quot;text-align: left; font-size: 12px;&quot;&gt;&amp;nbsp;Second loop check&lt;/li&gt;&lt;li style=&quot;text-align: left; font-size: 12px;&quot;&gt;&amp;nbsp;Check both loops simultaneously&lt;/li&gt;&lt;/ol&gt;" style="text;html=1;strokeColor=#666666;fillColor=#f5f5f5;align=center;verticalAlign=middle;whiteSpace=wrap;rounded=0;fontSize=12;fontColor=#333333;" vertex="1" parent="1">
          <mxGeometry x="565" y="40" width="246" height="130" as="geometry" />
        </mxCell>
        <mxCell id="5QzYHKSAta37W70-3rno-57" value="Treatment of phase angles: UA and UB phase angles are set to 180°" style="text;html=1;strokeColor=#666666;fillColor=#f5f5f5;align=center;verticalAlign=middle;whiteSpace=wrap;rounded=0;fontSize=12;fontColor=#333333;" vertex="1" parent="1">
          <mxGeometry x="550" y="200" width="276" height="80" as="geometry" />
        </mxCell>
        <mxCell id="5QzYHKSAta37W70-3rno-58" value="Voltage processing, UA=UB=120V for verification, the rated voltage of the meter is 240V." style="text;html=1;strokeColor=#666666;fillColor=#f5f5f5;align=center;verticalAlign=middle;whiteSpace=wrap;rounded=0;fontSize=12;fontColor=#333333;" vertex="1" parent="1">
          <mxGeometry x="540" y="310" width="296" height="100" as="geometry" />
        </mxCell>
        <mxCell id="5QzYHKSAta37W70-3rno-59" value="&lt;h1&gt;Power up for 1p3w mode&lt;/h1&gt;&lt;p&gt;in toolkit program&lt;/p&gt;&lt;p&gt;&lt;br&gt;&lt;/p&gt;" style="text;html=1;strokeColor=none;fillColor=none;spacing=5;spacingTop=-20;whiteSpace=wrap;overflow=hidden;rounded=0;fontSize=12;fontColor=#3333FF;" vertex="1" parent="1">
          <mxGeometry x="30" y="20" width="220" height="110" as="geometry" />
        </mxCell>
        <mxCell id="5QzYHKSAta37W70-3rno-60" value="&lt;div style=&quot;text-align: left&quot;&gt;Constant processing, single circuit check, constant according to half processing.&lt;/div&gt;&lt;div style=&quot;text-align: left&quot;&gt;&lt;br&gt;&lt;/div&gt;&lt;div style=&quot;text-align: left&quot;&gt;When both loops are checked at the same time, the table constant is treated as the actual constant.&lt;/div&gt;" style="text;html=1;strokeColor=#666666;fillColor=#f5f5f5;align=center;verticalAlign=middle;whiteSpace=wrap;rounded=0;fontSize=12;fontColor=#333333;" vertex="1" parent="1">
          <mxGeometry x="540" y="450" width="296" height="130" as="geometry" />
        </mxCell>
        <mxCell id="5QzYHKSAta37W70-3rno-61" value="output voltage Ua=Ub=120 as per selection" style="rounded=0;whiteSpace=wrap;html=1;fontSize=12;" vertex="1" parent="1">
          <mxGeometry x="280" y="384" width="150" height="60" as="geometry" />
        </mxCell>
        <mxCell id="5QzYHKSAta37W70-3rno-62" value="" style="endArrow=classic;html=1;fontSize=12;fontColor=#000000;exitX=0.5;exitY=1;exitDx=0;exitDy=0;entryX=0.5;entryY=0;entryDx=0;entryDy=0;" edge="1" parent="1" source="5QzYHKSAta37W70-3rno-55" target="5QzYHKSAta37W70-3rno-61">
          <mxGeometry width="50" height="50" relative="1" as="geometry">
            <mxPoint x="460" y="430" as="sourcePoint" />
            <mxPoint x="510" y="380" as="targetPoint" />
          </mxGeometry>
        </mxCell>
        <mxCell id="5QzYHKSAta37W70-3rno-65" value="output phase angle Uab = 180&lt;span style=&quot;color: rgb(51 , 51 , 51)&quot;&gt;°&lt;/span&gt;" style="rounded=0;whiteSpace=wrap;html=1;fontSize=12;" vertex="1" parent="1">
          <mxGeometry x="280" y="490" width="150" height="60" as="geometry" />
        </mxCell>
        <mxCell id="5QzYHKSAta37W70-3rno-66" value="output current according to selected loop" style="rounded=0;whiteSpace=wrap;html=1;fontSize=12;" vertex="1" parent="1">
          <mxGeometry x="280" y="600" width="150" height="60" as="geometry" />
        </mxCell>
        <mxCell id="5QzYHKSAta37W70-3rno-67" value="Output phase with shift phase B +180&lt;span style=&quot;color: rgb(51 , 51 , 51)&quot;&gt;°&lt;/span&gt;&amp;nbsp;" style="rounded=0;whiteSpace=wrap;html=1;fontSize=12;" vertex="1" parent="1">
          <mxGeometry x="280" y="700" width="150" height="60" as="geometry" />
        </mxCell>
        <mxCell id="5QzYHKSAta37W70-3rno-68" value="" style="endArrow=classic;html=1;fontSize=12;fontColor=#000000;exitX=0.5;exitY=1;exitDx=0;exitDy=0;" edge="1" parent="1" source="5QzYHKSAta37W70-3rno-61" target="5QzYHKSAta37W70-3rno-65">
          <mxGeometry width="50" height="50" relative="1" as="geometry">
            <mxPoint x="365" y="350" as="sourcePoint" />
            <mxPoint x="365" y="394" as="targetPoint" />
            <Array as="points" />
          </mxGeometry>
        </mxCell>
        <mxCell id="5QzYHKSAta37W70-3rno-69" value="" style="endArrow=classic;html=1;fontSize=12;fontColor=#000000;exitX=0.5;exitY=1;exitDx=0;exitDy=0;" edge="1" parent="1" source="5QzYHKSAta37W70-3rno-65" target="5QzYHKSAta37W70-3rno-66">
          <mxGeometry width="50" height="50" relative="1" as="geometry">
            <mxPoint x="365" y="454" as="sourcePoint" />
            <mxPoint x="365" y="500" as="targetPoint" />
            <Array as="points" />
          </mxGeometry>
        </mxCell>
        <mxCell id="5QzYHKSAta37W70-3rno-70" value="" style="endArrow=classic;html=1;fontSize=12;fontColor=#000000;exitX=0.5;exitY=1;exitDx=0;exitDy=0;entryX=0.5;entryY=0;entryDx=0;entryDy=0;" edge="1" parent="1" source="5QzYHKSAta37W70-3rno-66" target="5QzYHKSAta37W70-3rno-67">
          <mxGeometry width="50" height="50" relative="1" as="geometry">
            <mxPoint x="365" y="560" as="sourcePoint" />
            <mxPoint x="365" y="610" as="targetPoint" />
            <Array as="points" />
          </mxGeometry>
        </mxCell>
        <mxCell id="5QzYHKSAta37W70-3rno-71" value="" style="endArrow=classic;html=1;fontSize=12;fontColor=#000000;exitX=0.5;exitY=1;exitDx=0;exitDy=0;entryX=0.5;entryY=0;entryDx=0;entryDy=0;entryPerimeter=0;" edge="1" parent="1" source="5QzYHKSAta37W70-3rno-67" target="40">
          <mxGeometry width="50" height="50" relative="1" as="geometry">
            <mxPoint x="365" y="670" as="sourcePoint" />
            <mxPoint x="365" y="710" as="targetPoint" />
            <Array as="points" />
          </mxGeometry>
        </mxCell>
      </root>
    </mxGraphModel>
  </diagram>
</mxfile>
